<svg width="36" height="24" viewBox="0 0 36 24" fill="none" xmlns="http://www.w3.org/2000/svg">
<path d="M14.4151 10.7632L15.5405 10.9627C18.2116 11.7889 18.7084 15.1136 18.3594 17.5229C17.8537 21.0167 14.9635 22.6586 11.6478 22.8117L0 22.8028L0.0142459 0.757266L12.2052 0.716309C15.7756 1.02972 17.9267 3.51029 17.6703 7.11094C17.5367 8.98606 16.2938 10.4712 14.4151 10.7632ZM4.97182 9.55411C5.0751 9.56124 5.1677 9.59507 5.27277 9.60219C6.93954 9.72328 9.17436 9.64671 10.8536 9.55233C11.427 9.52028 11.801 9.6289 12.296 9.22824C13.3627 8.36458 13.3502 4.99364 11.7529 4.65708C11.4056 4.58407 10.6898 4.58763 10.2998 4.57517C8.5796 4.52531 6.85228 4.61791 5.13209 4.57517L4.97182 4.64818V9.55589V9.55411ZM4.97182 18.903H11.5071C12.0146 18.903 12.8267 18.4738 13.1597 18.091C14.0411 17.0742 13.977 14.5811 13.019 13.6249C12.7643 13.3702 12.004 12.95 11.6478 12.95H4.97182V18.903Z" fill="white"/>
<path d="M35.2764 17.4143C35.2995 17.4179 35.3868 17.4642 35.3939 17.4927C35.4259 19.7524 34.2578 21.4922 32.2455 22.4307C29.6118 23.6594 25.5215 23.565 22.9875 22.119C17.7236 19.1149 18.3896 9.84973 23.6855 7.2178C26.3566 5.88937 30.5894 5.9606 32.9489 7.92476C35.0484 9.67344 35.7963 12.9358 35.5791 15.5766C35.5666 15.7226 35.5577 15.9238 35.3672 15.9238H24.088C23.9954 17.5639 24.7931 19.0134 26.3887 19.553C27.8863 20.0605 30.7871 19.861 31.4121 18.1088C31.4584 17.9788 31.535 17.4125 31.6454 17.4125H35.2728L35.2764 17.4143ZM31.3 12.9963C31.3463 11.8192 30.7729 10.5282 29.7187 9.94946C28.7321 9.40633 27.3022 9.43304 26.2783 9.85864C25.0567 10.3679 24.2037 11.7017 24.0435 12.9963H31.3Z" fill="white"/>
<path d="M32.137 4.66959H23.1835L23.114 4.60014V2.08752L23.1835 2.01807H32.1139L32.1833 2.08752V4.55206C32.1833 4.56808 32.121 4.62329 32.137 4.66781V4.66959Z" fill="white"/>
</svg>
