<svg width="36" height="36" viewBox="0 0 36 36" fill="none" xmlns="http://www.w3.org/2000/svg">
<path fill-rule="evenodd" clip-rule="evenodd" d="M17.7292 0.5C8.06096 0.5 0.230103 8.52912 0.230103 18.4422C0.230103 26.3816 5.23835 33.0866 12.1943 35.4657C13.0692 35.6218 13.3982 35.0835 13.3982 34.6134C13.3982 34.1882 13.3772 32.7744 13.3772 31.2726C8.97966 32.1015 7.84222 30.1727 7.49224 29.1644C7.29625 28.6495 6.44229 27.0562 5.69858 26.6292C5.08611 26.2937 4.21115 25.4629 5.67758 25.4414C7.05476 25.4181 8.03996 26.7422 8.36895 27.2805C9.94387 29.9951 12.4602 29.2326 13.4664 28.7607C13.6187 27.5945 14.0789 26.8086 14.5811 26.36C10.6876 25.9115 6.61903 24.3649 6.61903 17.502C6.61903 15.5517 7.29625 13.9351 8.41269 12.6791C8.2377 12.2306 7.62523 10.3915 8.58768 7.92447C8.58768 7.92447 10.0524 7.45259 13.3999 9.76354C14.7999 9.35984 16.2873 9.15709 17.7747 9.15709C19.2622 9.15709 20.7496 9.35984 22.1495 9.76354C25.4953 7.43106 26.9618 7.92447 26.9618 7.92447C27.9242 10.3915 27.3117 12.2306 27.1368 12.6791C28.2532 13.9351 28.9304 15.5266 28.9304 17.502C28.9304 24.3864 24.8409 25.9133 20.9473 26.36C21.5808 26.9198 22.1285 27.9982 22.1285 29.6793C22.1285 32.0782 22.1058 34.007 22.1058 34.6134C22.1058 35.0853 22.433 35.6451 23.3097 35.4657C30.2219 33.0883 35.2301 26.36 35.2301 18.4422C35.2284 8.52912 27.3975 0.5 17.7292 0.5Z" fill="white"/>
</svg>
