<svg width="37" height="36" viewBox="0 0 37 36" fill="none" xmlns="http://www.w3.org/2000/svg">
<path d="M27.743 0.191772C27.7786 0.248756 27.8748 0.227387 27.9336 0.227387C32.8306 0.279029 36.027 3.33834 36.23 8.24249V27.8235C36.1392 30.5925 34.8838 33.1746 32.4834 34.617C31.0427 35.4824 29.4223 35.7318 27.7626 35.8083H9.22157C7.30728 35.746 5.49271 35.4255 3.90785 34.3054C1.95616 32.9217 0.939357 30.8757 0.688272 28.5144C0.661561 28.2598 0.672246 27.9838 0.615262 27.7362V8.67699C0.604578 3.74435 3.68526 0.448199 8.61434 0.191772H27.743ZM14.5887 4.7932C11.6986 4.86087 9.13432 5.02648 7.10071 7.32185C5.38408 9.25929 5.30751 11.5226 5.24162 13.9836C5.17039 16.6351 5.17217 19.3276 5.24162 21.9791C5.30751 24.4775 5.3823 26.7515 7.13455 28.7103C9.1824 30.9968 11.6665 31.1036 14.5442 31.1784C17.0942 31.2443 19.6781 31.2425 22.2281 31.1784C24.5377 31.1214 26.7173 31.1072 28.6583 29.679C30.6189 28.2348 31.3989 26.13 31.5681 23.7545C31.7248 21.5482 31.6429 19.2866 31.6357 17.0785C31.625 13.2072 32.129 8.87821 28.6423 6.29792C26.7779 4.91963 24.6232 4.8769 22.4008 4.81813C19.8152 4.75046 17.1779 4.73088 14.5869 4.79142L14.5887 4.7932Z" fill="white"/>
<path d="M14.2415 7.15806C16.9749 7.08327 19.8473 7.10464 22.5771 7.18477C24.276 7.23463 26.014 7.21683 27.4118 8.33157C29.5327 10.0251 29.2335 13.0024 29.2727 15.4438C29.3155 18.1345 29.4241 21.0834 29.2051 23.7545C28.9273 27.1326 27.1162 28.5661 23.8326 28.7798C20.9406 28.9685 17.7674 28.8831 14.8612 28.8136C12.7492 28.7638 10.4931 28.8742 8.94737 27.1807C7.64031 25.749 7.66346 23.9077 7.61003 22.0842C7.53168 19.3793 7.53168 16.6191 7.61003 13.9142C7.65633 12.2812 7.6314 10.4952 8.67314 9.1329C10.0657 7.31299 12.1206 7.21683 14.2451 7.15806H14.2415ZM25.1948 9.3822C23.5013 9.61192 23.5013 12.3436 25.3248 12.5021C27.6522 12.7051 27.6451 9.04921 25.1948 9.3822ZM23.2449 22.7858C26.7565 19.2635 25.364 13.2464 20.702 11.5992C15.2886 9.68493 10.0924 14.9488 12.0583 20.348C13.7429 24.9743 19.76 26.2814 23.2449 22.7876V22.7858Z" fill="white"/>
<path d="M17.997 13.5918C22.3616 13.2339 24.5786 18.5903 21.254 21.4057C18.8073 23.4784 14.9377 22.2106 14.1453 19.1263C13.4757 16.5175 15.2921 13.8126 17.9953 13.5918H17.997Z" fill="white"/>
</svg>
