<svg width="37" height="36" viewBox="0 0 37 36" fill="none" xmlns="http://www.w3.org/2000/svg">
<path d="M3.02543 0.025166L33.9152 0C35.339 0.106057 36.4622 0.896989 36.6152 2.38178V33.5409C36.509 34.9574 35.3822 35.9047 33.9944 36H3.39263C1.97963 35.9802 0.775434 35.0545 0.615234 33.6182L0.618834 2.30629C0.777234 1.01563 1.75823 0.168972 3.02543 0.025166ZM8.26883 4.94333C4.24403 5.38193 4.81463 11.6429 9.02123 11.1593C13.2278 10.6758 12.3512 4.49933 8.26883 4.94333ZM19.7888 15.8528V13.5106H14.8208C14.801 13.5106 14.774 13.4476 14.7434 13.4494L14.6264 13.5501V30.6882H19.9472C20.0606 27.7941 19.796 24.7831 19.9436 21.9016C20.0408 19.998 20.4368 17.9757 22.721 17.8032C25.4012 17.5982 25.8602 19.3131 25.9754 21.5907C26.1248 24.5782 25.8566 27.6898 25.9718 30.69H31.37L31.3736 20.8105C31.253 17.6432 30.7184 14.2116 27.1454 13.3182C24.9188 12.761 22.505 13.0234 20.7662 14.6053L19.7906 15.8564L19.7888 15.8528ZM11.2604 13.5106H6.05663C6.03323 13.5106 5.99723 13.4117 5.93963 13.4333V30.6882H11.2604V13.5106Z" fill="white"/>
</svg>
