<svg width="57" height="57" viewBox="0 0 57 57" fill="none" xmlns="http://www.w3.org/2000/svg">
<g clip-path="url(#clip0_193_6)">
<path d="M28.5 0L31.6459 8.63714L37.3078 1.39547L37.6295 10.5823L45.2517 5.44296L42.7206 14.2795L51.557 11.7483L46.4192 19.3705L55.606 19.6937L48.3629 25.3541L57 28.5L48.3629 31.6459L55.606 37.3078L46.4192 37.6295L51.557 45.2517L42.7206 42.7206L45.2517 51.557L37.6295 46.4192L37.3078 55.606L31.6459 48.3629L28.5 57L25.3541 48.3629L19.6937 55.606L19.3705 46.4192L11.7483 51.557L14.2795 42.7206L5.44296 45.2517L10.5823 37.6295L1.39547 37.3078L8.63714 31.6459L0 28.5L8.63714 25.3541L1.39547 19.6937L10.5823 19.3705L5.44296 11.7483L14.2795 14.2795L11.7483 5.44296L19.3705 10.5823L19.6937 1.39547L25.3541 8.63714L28.5 0Z" fill="#222221"/>
</g>
<defs>
<clipPath id="clip0_193_6">
<rect width="57" height="57" fill="white"/>
</clipPath>
</defs>
</svg>
